<!DOCTYPE svg PUBLIC "-//W3C//DTD SVG 20010904//EN" "http://www.w3.org/TR/2001/REC-SVG-20010904/DTD/svg10.dtd">
<svg version="1.0" xmlns="http://www.w3.org/2000/svg" width="66px" height="66px" viewBox="0 0 660 660" preserveAspectRatio="xMidYMid meet">
<g id="layer1" fill="#4ac116" stroke="none">
 <path d="M595 480 c-10 -11 -25 -20 -33 -20 -10 0 -12 -6 -7 -17 28 -67 24 -168 -9 -232 -22 -42 -94 -100 -140 -113 -23 -6 -63 -11 -91 -12 -41 -1 -54 -6 -73 -28 -18 -21 -29 -27 -48 -22 -13 3 -24 2 -24 -4 0 -31 201 -43 288 -17 61 18 146 96 177 160 36 76 28 309 -11 322 -6 2 -19 -6 -29 -17z"/>
 <path d="M11 444 c0 -11 3 -14 6 -6 3 7 2 16 -1 19 -3 4 -6 -2 -5 -13z"/>
 <path d="M485 350 c-14 -15 -31 -20 -72 -20 -40 0 -53 -4 -53 -15 0 -12 14 -15 63 -15 77 0 117 16 117 48 0 28 -30 30 -55 2z"/>
 <path d="M11 214 c0 -11 3 -14 6 -6 3 7 2 16 -1 19 -3 4 -6 -2 -5 -13z"/>
 <path d="M280 185 c0 -24 5 -35 15 -35 10 0 15 11 15 35 0 24 -5 35 -15 35 -10 0 -15 -11 -15 -35z"/>
 <path d="M316 148 c-21 -29 -20 -38 2 -38 23 0 42 19 42 42 0 25 -26 23 -44 -4z"/>
 </g>
<g id="layer2" fill="#46b914" stroke="none">
 <path d="M190 643 c-65 -23 -151 -113 -173 -180 -22 -68 -22 -198 0 -266 22 -69 113 -162 167 -172 31 -6 41 -3 62 16 16 15 35 23 50 21 17 -2 24 1 24 13 0 11 -7 16 -22 14 -34 -5 -112 37 -152 81 -53 59 -70 152 -45 245 15 53 91 129 144 144 106 29 191 8 264 -65 30 -30 57 -54 61 -54 3 0 19 13 34 29 l28 30 -21 30 c-34 48 -100 99 -149 115 -60 21 -211 20 -272 -1z"/>
 <path d="M651 414 c0 -11 3 -14 6 -6 3 7 2 16 -1 19 -3 4 -6 -2 -5 -13z"/>
 <path d="M571 404 c0 -11 3 -14 6 -6 3 7 2 16 -1 19 -3 4 -6 -2 -5 -13z"/>
 <path d="M296 371 c-15 -16 -17 -35 -13 -133 4 -108 5 -114 30 -128 21 -12 28 -12 41 0 9 7 16 20 15 29 -1 9 -1 51 0 94 l1 77 48 0 c36 0 54 5 67 20 10 11 23 20 29 20 6 0 5 -5 -2 -12 -16 -16 -15 -28 3 -28 20 0 30 46 15 65 -10 12 -36 15 -115 15 -87 0 -104 -3 -119 -19z m47 -226 c-3 -9 -8 -14 -10 -11 -3 3 -2 9 2 15 9 16 15 13 8 -4z"/>
 <path d="M574 344 c3 -9 6 -19 6 -22 0 -9 20 21 20 31 0 4 -7 7 -16 7 -11 0 -14 -5 -10 -16z"/>
 <path d="M651 244 c0 -11 3 -14 6 -6 3 7 2 16 -1 19 -3 4 -6 -2 -5 -13z"/>
 <path d="M238 3 c7 -3 16 -2 19 1 4 3 -2 6 -13 5 -11 0 -14 -3 -6 -6z"/>
 <path d="M408 3 c7 -3 16 -2 19 1 4 3 -2 6 -13 5 -11 0 -14 -3 -6 -6z"/>
 </g>

</svg>