<!DOCTYPE svg PUBLIC "-//W3C//DTD SVG 20010904//EN" "http://www.w3.org/TR/2001/REC-SVG-20010904/DTD/svg10.dtd">
<svg version="1.0" xmlns="http://www.w3.org/2000/svg" width="60px" height="19px" viewBox="0 0 600 190" preserveAspectRatio="xMidYMid meet">
<g id="layer1" fill="#00a3ab" stroke="none">
 <path d="M243 154 c4 -24 0 -37 -14 -50 -27 -25 -24 -41 12 -49 18 -4 35 -16 41 -31 14 -31 42 -31 56 0 6 14 22 26 41 29 35 7 40 26 12 51 -14 13 -18 26 -14 50 l5 33 -72 0 -72 0 5 -33z m90 3 c21 10 23 9 19 -16 -2 -17 3 -32 13 -41 14 -12 13 -15 -14 -26 -17 -7 -31 -20 -31 -29 0 -8 -4 -15 -10 -15 -5 0 -10 7 -10 15 0 9 -14 22 -31 29 -27 11 -28 14 -14 26 10 9 15 24 13 41 -4 25 -2 26 19 16 16 -7 30 -7 46 0z"/>
 <path d="M23 93 c15 -2 39 -2 55 0 15 2 2 4 -28 4 -30 0 -43 -2 -27 -4z"/>
 <path d="M523 93 c15 -2 39 -2 55 0 15 2 2 4 -28 4 -30 0 -43 -2 -27 -4z"/>
 </g>

</svg>