<!DOCTYPE svg PUBLIC "-//W3C//DTD SVG 20010904//EN" "http://www.w3.org/TR/2001/REC-SVG-20010904/DTD/svg10.dtd">
<svg version="1.0" xmlns="http://www.w3.org/2000/svg" width="30px" height="30px" viewBox="0 0 300 300" preserveAspectRatio="xMidYMid meet">
<g id="layer1" fill="#d0d0d0" stroke="none">
 <path d="M30 286 c0 -8 -7 -16 -15 -20 -28 -10 -17 -56 26 -104 23 -26 45 -57 50 -70 10 -26 34 -29 49 -4 10 16 10 16 20 0 14 -23 39 -23 47 0 3 9 26 40 50 69 45 53 56 99 28 109 -8 4 -15 12 -15 20 0 16 -36 19 -45 4 -3 -5 -37 -10 -75 -10 -38 0 -72 5 -75 10 -9 15 -45 12 -45 -4z m148 -68 c18 -18 15 -56 -5 -66 -10 -6 -28 -6 -40 -1 -39 14 -25 79 17 79 9 0 21 -5 28 -12z"/>
 <path d="M124 206 c-10 -26 4 -48 28 -44 17 2 23 10 23 28 0 18 -6 26 -23 28 -13 2 -25 -3 -28 -12z"/>
 <path d="M0 82 c0 -17 9 -40 19 -53 18 -23 26 -24 129 -24 127 0 152 12 152 72 0 33 -1 34 -37 31 -31 -2 -39 -7 -41 -25 -3 -21 -8 -23 -72 -23 -64 0 -69 2 -72 23 -2 18 -10 23 -40 25 -36 3 -38 2 -38 -26z"/>
 </g>

</svg>