<!DOCTYPE svg PUBLIC "-//W3C//DTD SVG 20010904//EN" "http://www.w3.org/TR/2001/REC-SVG-20010904/DTD/svg10.dtd">
<svg version="1.0" xmlns="http://www.w3.org/2000/svg" width="50px" height="43px" viewBox="0 0 500 430" preserveAspectRatio="xMidYMid meet">
<g id="layer1" fill="#fefefe" stroke="none">
 <path d="M1 260 c0 -112 4 -172 11 -176 7 -4 8 -2 4 4 -4 7 -3 12 3 12 10 0 36 -39 33 -50 -3 -14 55 4 67 21 15 21 56 26 67 7 5 -7 3 -8 -6 -3 -9 5 -11 4 -6 -4 4 -6 11 -9 15 -6 5 2 19 -7 31 -20 18 -19 34 -25 67 -25 24 0 43 -4 43 -10 0 -5 5 -10 11 -10 5 0 8 4 5 8 -3 5 5 15 18 22 13 7 30 23 37 36 9 17 21 24 44 24 51 0 55 11 55 167 0 133 -1 143 -20 153 -14 7 -97 10 -244 8 -123 -2 -222 0 -219 5 2 4 0 7 -6 7 -6 0 -10 -62 -10 -170z m474 -5 l0 -130 -33 -3 c-18 -2 -39 2 -47 8 -11 9 -9 18 12 48 20 30 24 46 20 80 -12 105 -145 156 -212 82 -10 -11 -21 -18 -25 -15 -4 2 -7 -1 -8 -8 0 -7 -4 -30 -8 -53 -7 -48 11 -91 53 -124 22 -17 38 -21 78 -18 27 2 56 6 64 9 22 6 25 -28 7 -56 -14 -21 -24 -25 -69 -25 -47 0 -57 4 -87 35 -32 33 -37 34 -114 37 l-81 3 -3 119 c-1 66 0 126 2 133 4 11 50 13 228 11 l223 -3 0 -130z m-124 80 c33 -17 49 -49 49 -96 0 -21 -4 -28 -12 -23 -8 5 -9 2 -5 -9 4 -10 -2 -24 -14 -36 -63 -58 -169 -14 -169 71 0 49 13 73 48 92 35 20 66 20 103 1z m-258 -252 c-7 -2 -19 -2 -25 0 -7 3 -2 5 12 5 14 0 19 -2 13 -5z"/>
 <path d="M215 370 c4 -6 11 -8 16 -5 14 9 11 15 -7 15 -8 0 -12 -5 -9 -10z"/>
 <path d="M400 345 c19 -20 36 -31 38 -25 5 15 -38 60 -57 60 -10 0 -3 -12 19 -35z"/>
 <path d="M455 370 c3 -5 8 -10 11 -10 2 0 4 5 4 10 0 6 -5 10 -11 10 -5 0 -7 -4 -4 -10z"/>
 <path d="M115 220 c16 -16 35 -30 43 -30 8 0 -2 14 -23 30 -21 17 -40 30 -43 30 -3 0 7 -13 23 -30z"/>
 <path d="M34 194 l1 -50 35 1 c19 1 44 -2 55 -7 18 -8 18 -8 3 4 -10 9 -14 23 -11 40 6 32 -30 62 -58 48 -12 -7 -19 -6 -22 3 -2 6 -4 -11 -3 -39z m59 1 c7 -17 -8 -29 -28 -21 -17 6 -9 36 10 36 7 0 15 -7 18 -15z"/>
 <path d="M447 139 c7 -7 15 -10 18 -7 3 3 -2 9 -12 12 -14 6 -15 5 -6 -5z"/>
 <path d="M250 96 c0 -2 7 -7 16 -10 8 -3 12 -2 9 4 -6 10 -25 14 -25 6z"/>
 <path d="M258 311 c-14 -11 -27 -18 -30 -16 -2 2 -5 -12 -6 -32 -2 -20 -6 -41 -9 -46 -3 -6 -1 -7 5 -3 7 4 13 2 13 -3 1 -6 2 -15 3 -20 0 -5 5 -13 10 -18 5 -5 6 -2 2 7 -7 13 -6 13 6 0 11 -13 93 -21 93 -9 0 2 8 15 18 29 23 33 21 69 -5 99 l-23 26 23 -19 c12 -11 22 -14 22 -8 0 31 -87 40 -122 13z m73 -21 c29 -16 25 -65 -6 -86 -23 -15 -27 -15 -50 0 -44 29 -28 95 23 96 7 0 22 -5 33 -10z"/>
 <path d="M320 265 c7 -9 15 -13 17 -11 7 7 -7 26 -19 26 -6 0 -6 -6 2 -15z"/>
 <path d="M260 245 c0 -8 4 -15 9 -15 5 0 17 -7 25 -16 9 -8 16 -11 16 -7 0 5 -11 19 -25 31 -19 17 -25 18 -25 7z"/>
 <path d="M428 73 c7 -3 16 -2 19 1 4 3 -2 6 -13 5 -11 0 -14 -3 -6 -6z"/>
 <path d="M70 36 c0 -2 8 -10 18 -17 15 -13 16 -12 3 4 -13 16 -21 21 -21 13z"/>
 </g>

</svg>