<!DOCTYPE svg PUBLIC "-//W3C//DTD SVG 20010904//EN" "http://www.w3.org/TR/2001/REC-SVG-20010904/DTD/svg10.dtd">
<svg version="1.0" xmlns="http://www.w3.org/2000/svg" width="60px" height="43px" viewBox="0 0 600 430" preserveAspectRatio="xMidYMid meet">
<g id="layer1" fill="#fefefe" stroke="none">
 <path d="M20 404 c-6 -14 -10 -74 -10 -132 0 -152 0 -152 146 -152 94 0 114 -3 114 -15 0 -12 -24 -15 -132 -17 -118 -3 -133 -5 -136 -21 -3 -16 7 -17 145 -15 l148 3 3 32 c3 30 6 33 38 33 33 0 34 -1 34 -38 0 -45 14 -62 50 -62 14 0 31 -5 37 -11 5 -5 38 -9 74 -7 62 3 64 4 67 31 2 16 -2 35 -9 43 -16 20 -112 19 -129 -1 -21 -26 -47 -18 -52 15 -3 17 0 30 6 30 24 0 40 20 45 58 l6 40 40 -15 c22 -8 51 -16 65 -17 l25 -1 3 108 c2 82 0 109 -11 113 -7 2 -39 -7 -70 -21 -54 -23 -57 -24 -57 -6 0 52 3 51 -221 51 l-209 0 -10 -26z m388 -2 c9 -7 12 -39 10 -128 l-3 -119 -180 0 -180 0 -3 101 c-1 56 2 113 7 127 l11 27 162 0 c90 0 169 -4 176 -8z m160 -140 l-3 -39 -52 20 c-46 17 -53 23 -53 46 0 22 9 31 53 52 l52 25 3 -33 c2 -18 2 -50 0 -71z m12 -222 c3 -1 -3 -5 -13 -9 -22 -8 -87 -2 -87 9 0 6 81 6 100 0z"/>
 <path d="M110 330 c-26 -26 -25 -52 3 -78 21 -20 34 -22 123 -22 117 0 144 12 144 64 0 25 -6 36 -26 46 -22 12 -29 12 -52 -1 -15 -8 -28 -25 -30 -37 -5 -30 -62 -33 -62 -3 0 22 -35 51 -62 51 -10 0 -27 -9 -38 -20z m58 -37 c-2 -10 -10 -18 -18 -18 -8 0 -16 8 -18 18 -2 12 3 17 18 17 15 0 20 -5 18 -17z m175 11 c9 -10 -4 -34 -18 -34 -17 0 -28 17 -20 30 7 11 28 13 38 4z"/>
 </g>

</svg>