<!DOCTYPE svg PUBLIC "-//W3C//DTD SVG 20010904//EN" "http://www.w3.org/TR/2001/REC-SVG-20010904/DTD/svg10.dtd">
<svg version="1.0" xmlns="http://www.w3.org/2000/svg" width="54px" height="46px" viewBox="0 0 540 460" preserveAspectRatio="xMidYMid meet">
<g id="layer1" fill="#fdfefe" stroke="none">
 <path d="M52 448 c-7 -7 -12 -17 -12 -24 0 -6 -9 -14 -20 -17 -17 -4 -20 -14 -20 -61 0 -41 4 -58 15 -62 8 -4 15 -12 15 -19 0 -20 34 -25 165 -25 105 0 124 3 155 22 19 11 64 27 99 35 82 17 93 26 89 77 -2 31 -8 42 -23 45 -11 2 -26 12 -33 22 -16 23 -64 25 -86 4 -11 -12 -41 -15 -131 -15 -90 0 -120 3 -131 15 -18 18 -65 20 -82 3z m52 -14 c19 -7 21 -50 4 -57 -18 -6 -48 11 -48 26 0 7 5 18 12 25 14 14 12 14 32 6z m360 -18 c9 -13 7 -20 -7 -31 -25 -18 -47 -8 -47 20 0 37 34 44 54 11z m-72 -41 c27 -35 70 -34 96 3 19 25 21 25 28 8 12 -31 -10 -50 -71 -63 -32 -6 -80 -23 -108 -39 -48 -26 -54 -27 -153 -21 -120 7 -149 20 -159 74 -8 43 -1 52 23 30 27 -25 68 -21 89 8 17 23 23 24 127 25 104 0 109 -1 128 -25z"/>
 <path d="M133 313 c-66 -4 -93 -16 -60 -28 27 -10 270 10 275 23 4 12 -35 13 -215 5z"/>
 <path d="M40 150 c0 -5 5 -10 11 -10 5 0 7 5 4 10 -3 6 -8 10 -11 10 -2 0 -4 -4 -4 -10z"/>
 <path d="M265 150 c3 -5 11 -10 16 -10 6 0 7 5 4 10 -3 6 -11 10 -16 10 -6 0 -7 -4 -4 -10z"/>
 <path d="M114 142 c6 -10 1 -11 -18 -6 -16 4 -32 1 -41 -6 -18 -15 -20 -101 -3 -118 18 -18 52 -14 81 8 30 24 34 24 66 -1 27 -22 61 -25 79 -7 16 16 16 100 0 116 -17 17 -53 15 -68 -3 -7 -8 -15 -13 -19 -11 -3 2 -15 -1 -26 -5 -18 -9 -18 -9 3 -5 12 2 20 0 16 -5 -3 -5 -11 -9 -18 -9 -14 0 -45 30 -44 43 0 5 -4 12 -8 15 -4 4 -4 1 0 -6z m1 -39 c16 -13 17 -15 3 -10 -10 4 -18 2 -18 -3 0 -5 8 -14 18 -20 16 -11 16 -11 0 -6 -12 3 -18 0 -18 -9 0 -8 6 -15 13 -15 19 0 -15 -20 -35 -20 -14 0 -18 9 -18 43 0 61 16 72 55 40z m150 -33 c0 -36 -4 -45 -19 -48 -10 -2 -23 2 -30 8 -8 9 -6 11 12 5 21 -6 22 -5 11 13 -7 12 -20 18 -33 15 -20 -3 -20 -3 -1 6 11 4 24 6 29 3 5 -2 6 1 4 9 -3 8 -14 13 -24 11 -18 -2 -18 -2 1 13 34 27 50 15 50 -35z m-88 -6 c-3 -3 -12 -4 -19 -1 -8 3 -5 6 6 6 11 1 17 -2 13 -5z"/>
 <path d="M70 45 c0 -8 4 -15 10 -15 5 0 7 7 4 15 -4 8 -8 15 -10 15 -2 0 -4 -7 -4 -15z"/>
 <path d="M230 106 c0 -2 7 -6 15 -10 8 -3 15 -1 15 4 0 6 -7 10 -15 10 -8 0 -15 -2 -15 -4z"/>
 <path d="M170 21 c0 -5 5 -13 10 -16 6 -3 10 -2 10 4 0 5 -4 13 -10 16 -5 3 -10 2 -10 -4z"/>
 <path d="M145 10 c3 -5 8 -10 11 -10 2 0 4 5 4 10 0 6 -5 10 -11 10 -5 0 -7 -4 -4 -10z"/>
 </g>

</svg>