<!DOCTYPE svg PUBLIC "-//W3C//DTD SVG 20010904//EN" "http://www.w3.org/TR/2001/REC-SVG-20010904/DTD/svg10.dtd">
<svg version="1.0" xmlns="http://www.w3.org/2000/svg" width="50px" height="50px" viewBox="0 0 500 500" preserveAspectRatio="xMidYMid meet">
<g id="layer1" fill="#fefefe" stroke="none">
 <path d="M10 373 c0 -71 -3 -165 -7 -210 l-6 -83 68 0 c65 0 67 -1 52 -18 -10 -10 -17 -28 -17 -40 0 -19 6 -22 43 -22 24 0 55 8 72 19 29 18 31 18 62 -1 67 -40 142 -7 97 43 -17 19 -16 19 55 19 l73 0 -6 118 c-3 64 -5 159 -6 210 l0 92 -240 0 -240 0 0 -127z m180 -38 l0 -145 -75 0 -75 0 0 145 0 145 75 0 75 0 0 -145z m80 0 l0 -145 -25 0 -25 0 0 145 0 145 25 0 25 0 0 -145z m189 53 c0 -51 -3 -87 -6 -80 -2 6 -12 12 -20 12 -14 0 -79 -47 -118 -86 -13 -14 -15 -2 -15 115 l0 131 80 0 80 0 -1 -92z m-10 -131 c18 -20 19 -26 8 -35 -11 -9 -13 -7 -13 11 1 16 -6 23 -22 25 -12 2 -20 8 -17 13 9 14 20 11 44 -14z m-70 -100 c-12 -12 -17 -14 -10 -5 18 24 7 48 -21 48 -22 1 -22 1 -4 15 17 13 21 12 39 -11 l20 -26 -24 -21z m-199 -22 c0 -25 -1 -25 -80 -25 -79 0 -80 0 -80 25 0 25 1 25 80 25 79 0 80 0 80 -25z m100 10 c0 -16 -30 -35 -54 -35 -10 0 -16 9 -16 25 0 22 4 25 35 25 24 0 35 -5 35 -15z m200 -10 c0 -23 -3 -25 -52 -25 l-53 0 30 25 c41 33 75 33 75 0z m-279 -85 c-20 -18 -71 -28 -71 -15 0 9 55 34 75 34 19 0 19 -1 -4 -19z m140 0 c21 -17 22 -19 6 -20 -18 0 -77 27 -77 35 0 13 51 3 71 -15z"/>
 </g>

</svg>