<!DOCTYPE svg PUBLIC "-//W3C//DTD SVG 20010904//EN" "http://www.w3.org/TR/2001/REC-SVG-20010904/DTD/svg10.dtd">
<svg version="1.0" xmlns="http://www.w3.org/2000/svg" width="51px" height="51px" viewBox="0 0 510 510" preserveAspectRatio="xMidYMid meet">
<g id="layer1" fill="#fefefe" stroke="none">
 <path d="M111 414 l2 -97 -57 -55 c-51 -49 -56 -58 -56 -97 0 -35 5 -48 27 -65 20 -15 35 -20 53 -15 14 4 39 6 55 6 93 -4 95 -4 95 -23 0 -26 45 -68 72 -68 13 1 34 7 48 14 21 12 29 12 52 0 66 -34 108 -3 108 80 0 55 0 55 -65 112 l-65 58 0 123 c0 75 -4 123 -10 123 -6 0 -10 -44 -10 -111 l0 -112 -49 44 -49 44 -1 68 c-1 37 -5 67 -11 67 -6 0 -10 -29 -10 -68 0 -64 -2 -70 -34 -101 -55 -53 -66 -40 -66 74 0 79 -3 95 -16 95 -13 0 -15 -15 -13 -96z m199 -134 c-12 -9 -10 -80 2 -80 6 0 8 -3 5 -6 -4 -4 -18 1 -33 11 -22 14 -30 15 -49 5 -35 -19 -60 -9 -63 25 -3 25 3 36 39 67 l43 37 31 -27 c17 -15 28 -29 25 -32z m-174 -36 c-1 -37 4 -49 23 -66 32 -25 37 -62 7 -53 -21 7 -31 8 -96 3 -33 -3 -35 -1 -38 29 -3 27 5 41 44 83 26 27 50 50 54 50 4 0 6 -21 6 -46z m289 -64 c21 -22 33 -40 26 -40 -10 0 -12 -9 -8 -30 4 -16 2 -32 -4 -36 -6 -3 -8 -12 -5 -20 7 -17 -8 -18 -33 -2 -15 9 -25 9 -46 0 -42 -19 -74 -15 -86 12 -16 34 7 76 54 101 20 11 40 28 43 38 8 25 15 22 59 -23z"/>
 </g>

</svg>