<!DOCTYPE svg PUBLIC "-//W3C//DTD SVG 20010904//EN" "http://www.w3.org/TR/2001/REC-SVG-20010904/DTD/svg10.dtd">
<svg version="1.0" xmlns="http://www.w3.org/2000/svg" width="213px" height="50px" viewBox="0 0 2130 500" preserveAspectRatio="xMidYMid meet">
<g id="layer1" fill="#ffffff" stroke="none">
 <path d="M0 250 l0 -250 1065 0 1065 0 0 250 0 250 -1065 0 -1065 0 0 -250z m2110 0 l0 -230 -1045 0 -1045 0 0 230 0 230 1045 0 1045 0 0 -230z"/>
 <path d="M281 315 c-23 -25 -46 -56 -52 -69 -27 -58 24 -111 84 -88 20 8 35 8 41 2 16 -16 55 -11 76 10 35 35 26 75 -31 136 -29 30 -57 54 -64 54 -7 0 -31 -20 -54 -45z"/>
 <path d="M650 250 l0 -90 48 0 c26 0 53 4 61 9 18 11 25 139 9 158 -6 8 -32 13 -64 13 l-54 0 0 -90z m78 38 c-6 -18 -28 -21 -28 -4 0 9 7 16 16 16 9 0 14 -5 12 -12z m-6 -73 c0 -5 -5 -11 -11 -13 -6 -2 -11 4 -11 13 0 9 5 15 11 13 6 -2 11 -8 11 -13z"/>
 <path d="M820 250 l0 -90 55 0 c48 0 55 2 55 20 0 16 -7 20 -30 20 -20 0 -30 5 -30 15 0 9 9 15 25 15 18 0 25 5 25 20 0 15 -7 20 -25 20 -16 0 -25 6 -25 15 0 10 10 15 30 15 23 0 30 4 30 20 0 18 -7 20 -55 20 l-55 0 0 -90z"/>
 <path d="M970 325 c-18 -22 5 -48 30 -35 23 13 30 13 30 0 0 -5 -13 -16 -29 -25 -38 -19 -47 -49 -27 -80 13 -20 25 -25 56 -25 43 0 54 10 45 40 -5 16 -10 18 -25 10 -23 -13 -30 -13 -30 0 0 5 13 16 29 25 38 19 47 49 27 80 -13 19 -25 25 -55 25 -22 0 -44 -6 -51 -15z"/>
 <path d="M1160 270 l0 -70 -30 0 c-23 0 -30 -4 -30 -20 0 -18 7 -20 80 -20 73 0 80 2 80 20 0 15 -7 20 -25 20 -24 0 -25 2 -25 70 0 68 -1 70 -25 70 -24 0 -25 -2 -25 -70z"/>
 <path d="M1280 250 l0 -90 53 0 c63 0 77 11 77 60 0 41 -24 70 -58 70 -17 0 -22 6 -22 25 0 20 -5 25 -25 25 -25 0 -25 -1 -25 -90z m78 -28 c2 -15 -2 -22 -12 -22 -11 0 -16 9 -16 26 0 31 23 28 28 -4z"/>
 <path d="M1420 334 c0 -3 12 -44 26 -90 24 -79 27 -84 53 -84 25 0 29 6 54 83 15 46 27 86 27 90 0 4 -11 7 -25 7 -16 0 -25 -6 -25 -15 0 -10 -10 -15 -30 -15 -20 0 -30 5 -30 15 0 9 -9 15 -25 15 -14 0 -25 -3 -25 -6z m90 -79 c0 -8 -4 -15 -10 -15 -5 0 -10 7 -10 15 0 8 5 15 10 15 6 0 10 -7 10 -15z"/>
 <path d="M1600 250 l0 -90 54 0 c63 0 80 15 80 67 0 39 -23 63 -61 63 -18 0 -23 6 -23 25 0 20 -5 25 -25 25 -25 0 -25 -1 -25 -90z m80 -15 c14 -16 6 -35 -16 -35 -8 0 -14 10 -14 25 0 28 12 32 30 10z"/>
 <path d="M1740 334 c0 -3 12 -44 26 -90 24 -79 27 -84 53 -84 25 0 29 6 54 83 15 46 27 86 27 90 0 4 -11 7 -25 7 -16 0 -25 -6 -25 -15 0 -10 -10 -15 -30 -15 -20 0 -30 5 -30 15 0 9 -9 15 -25 15 -14 0 -25 -3 -25 -6z m90 -79 c0 -8 -4 -15 -10 -15 -5 0 -10 7 -10 15 0 8 5 15 10 15 6 0 10 -7 10 -15z"/>
 </g>

</svg>