<!DOCTYPE svg PUBLIC "-//W3C//DTD SVG 20010904//EN" "http://www.w3.org/TR/2001/REC-SVG-20010904/DTD/svg10.dtd">
<svg version="1.0" xmlns="http://www.w3.org/2000/svg" width="47px" height="60px" viewBox="0 0 470 600" preserveAspectRatio="xMidYMid meet">
<g id="layer1" fill="#49bf15" stroke="none">
 <path d="M0 300 l0 -300 235 0 235 0 0 300 0 300 -235 0 -235 0 0 -300z m295 1 c0 -3 -23 -27 -51 -54 -41 -38 -54 -45 -62 -34 -9 10 -3 22 27 51 l39 38 -39 35 c-31 28 -37 39 -28 49 9 11 21 5 63 -32 28 -26 51 -49 51 -53z"/>
 </g>
<g id="layer2" fill="#fdfefd" stroke="none">
 <path d="M180 383 c0 -4 17 -24 37 -45 l37 -38 -37 -38 c-20 -21 -37 -41 -37 -45 0 -19 30 -3 70 38 l44 45 -44 45 c-40 41 -70 57 -70 38z"/>
 </g>
<g id="layer3" fill="#c8ecb8" stroke="none">
 <path d="M184 238 l-19 -23 23 19 c21 18 27 26 19 26 -2 0 -12 -10 -23 -22z"/>
 </g>
<g id="layer4" fill="#b0e39a" stroke="none">
 <path d="M210 335 c13 -14 26 -25 28 -25 3 0 -5 11 -18 25 -13 14 -26 25 -28 25 -3 0 5 -11 18 -25z"/>
 <path d="M224 278 l-19 -23 23 19 c21 18 27 26 19 26 -2 0 -12 -10 -23 -22z"/>
 </g>

</svg>